<?xml version="1.0" encoding="UTF-8" standalone="no"?>
<!DOCTYPE svg PUBLIC "-//W3C//DTD SVG 1.0//EN" "http://www.w3.org/TR/2001/REC-SVG-20010904/DTD/svg10.dtd">
<!-- Created with Inkscape (http://www.inkscape.org/) -->
<svg
   xmlns:svg="http://www.w3.org/2000/svg"
   xmlns="http://www.w3.org/2000/svg"
   version="1.0"
   width="600"
   height="370"
   id="svg2583">
  <defs
     id="defs2585" />
  <g
     transform="translate(-302.4865,-52.782431)"
     id="layer1">
    <g
       transform="matrix(9.1083826,0,0,-9.1083826,-2432.3264,797.52214)"
       id="g2568">
      <path
         d="M 303.782,69.275 L 307.468,69.275 L 306.545,67.933 L 309.621,67.933 L 320.612,81.077 L 303.782,69.275 z"
         id="path53"
         style="fill:#0079c2;fill-opacity:1;fill-rule:nonzero;stroke:#0079c2;stroke-width:0.442;stroke-linecap:butt;stroke-linejoin:miter;stroke-miterlimit:3.86400008;stroke-dasharray:none;stroke-opacity:1" />
      <path
         d="M 323.062,41.656 L 324.348,45.227 L 314.969,45.227 C 308.286,45.227 302.82,49.746 302.82,55.293 C 302.874,56.267 303.01,56.943 303.28,58.08 C 304.227,62.003 308.096,66.278 308.719,66.901 L 307.177,66.901 C 306.527,66.306 302.914,61.906 301.684,58.026 C 301.186,56.456 300.845,55.509 300.845,53.886 C 300.845,47.148 307.177,41.656 314.969,41.656 L 323.062,41.656 z"
         id="path55"
         style="fill:#0079c2;fill-opacity:1;fill-rule:nonzero;stroke:#0079c2;stroke-width:0.075;stroke-linecap:butt;stroke-linejoin:miter;stroke-miterlimit:3.86400008;stroke-dasharray:none;stroke-opacity:1" />
      <path
         d="M 309.945,58.318 L 313.773,58.318 L 316.076,60.621 L 318.379,58.318 L 322.206,58.318 L 320.49,56.015 L 322.206,53.712 L 318.379,53.712 L 316.076,51.409 L 313.773,53.712 L 309.945,53.712 L 311.689,56.015 L 309.945,58.318 z"
         id="path57"
         style="fill:#0079c2;fill-opacity:1;fill-rule:nonzero;stroke:#0079c2;stroke-width:0.27000001;stroke-linecap:butt;stroke-linejoin:miter;stroke-miterlimit:3.86400008;stroke-dasharray:none;stroke-opacity:1" />
      <path
         d="M 323.406,55.725 L 322.505,55.705 L 322.505,56.445 L 323.418,56.419 C 323.291,58.489 322.063,60.315 320.138,61.647 C 319.77,61.532 319.396,61.423 319.007,61.34 C 319.665,60.575 320.189,59.729 320.55,58.831 L 319.974,58.831 C 319.643,59.698 319.126,60.534 318.507,61.256 C 317.725,61.121 316.892,61.051 316.062,61.051 C 315.233,61.051 314.418,61.121 313.636,61.256 C 313.017,60.534 312.5,59.698 312.169,58.831 L 311.593,58.831 C 311.955,59.729 312.478,60.575 313.136,61.34 C 312.747,61.423 312.373,61.532 312.005,61.647 C 310.081,60.315 308.853,58.49 308.725,56.42 L 309.646,56.445 L 309.646,55.705 L 308.72,55.741 C 308.817,53.633 310.053,51.775 312.005,50.423 C 312.373,50.538 312.747,50.647 313.136,50.729 C 312.478,51.495 311.955,52.341 311.593,53.239 L 312.169,53.239 C 312.5,52.371 313.017,51.536 313.636,50.814 C 314.418,50.949 315.251,51.018 316.081,51.018 C 316.911,51.018 317.725,50.949 318.507,50.814 C 319.126,51.536 319.643,52.371 319.974,53.239 L 320.55,53.239 C 320.189,52.341 319.665,51.495 319.007,50.729 C 319.396,50.647 319.77,50.538 320.138,50.423 C 322.079,51.767 323.312,53.612 323.421,55.704 L 323.406,55.725 z M 316.87,48.824 C 317.884,49.12 318.682,49.516 319.512,50.015 C 319.206,50.099 318.894,50.172 318.577,50.233 C 318.066,49.713 317.458,49.233 316.827,48.812 L 316.87,48.824 z M 316.081,50.47 C 316.737,50.47 317.412,50.4 318.038,50.308 C 317.467,49.742 316.809,49.238 316.079,48.808 C 315.35,49.238 314.676,49.742 314.105,50.308 C 314.731,50.4 315.406,50.47 316.062,50.47 L 316.081,50.47 z M 315.274,48.824 C 314.259,49.12 313.461,49.516 312.631,50.015 C 312.938,50.099 313.249,50.172 313.566,50.233 C 314.078,49.713 314.685,49.233 315.317,48.812 L 315.274,48.824 z M 316.87,63.246 C 317.884,62.95 318.682,62.554 319.512,62.055 C 319.206,61.971 318.894,61.898 318.577,61.837 C 318.066,62.357 317.458,62.837 316.827,63.258 L 316.87,63.246 z M 316.062,61.6 C 315.406,61.6 314.731,61.67 314.105,61.762 C 314.676,62.328 315.334,62.832 316.064,63.261 C 316.793,62.832 317.467,62.328 318.038,61.762 C 317.412,61.67 316.737,61.6 316.081,61.6 L 316.062,61.6 z M 315.274,63.246 C 314.259,62.95 313.461,62.554 312.631,62.055 C 312.938,61.971 313.249,61.898 313.566,61.837 C 314.078,62.357 314.685,62.837 315.317,63.258 L 315.274,63.246 z M 316.077,48.146 C 320.635,49.126 324.003,52.142 324.163,55.74 L 326.179,55.787 L 326.179,56.336 L 324.119,56.397 C 323.928,59.972 320.601,62.948 316.066,63.923 C 311.53,62.948 308.172,59.957 307.983,56.382 L 305.972,56.336 L 305.972,55.787 L 307.98,55.74 C 308.141,52.142 311.52,49.126 316.077,48.146 z"
         id="path59"
         style="fill:#0079c2;fill-opacity:1;fill-rule:evenodd;stroke:#0079c2;stroke-width:0.076;stroke-linecap:butt;stroke-linejoin:miter;stroke-miterlimit:3.86400008;stroke-dasharray:none;stroke-opacity:1" />
      <path
         d="M 316.076,65.321 C 309.782,65.321 304.68,61.155 304.68,56.015 C 304.68,50.876 309.782,46.71 316.076,46.71 C 322.369,46.71 327.471,50.876 327.471,56.015 C 327.471,61.155 322.369,65.321 316.076,65.321 L 316.076,63.503 C 310.68,63.503 306.022,59.993 306.022,56.015 C 306.022,52.038 310.68,48.528 316.076,48.528 C 321.471,48.528 326.13,52.038 326.13,56.015 C 326.13,59.993 321.471,63.467 316.076,63.467 L 316.076,65.321 z"
         id="path61"
         style="fill:#0079c2;fill-opacity:1;fill-rule:evenodd;stroke:#0079c2;stroke-width:0.442;stroke-linecap:butt;stroke-linejoin:miter;stroke-miterlimit:3.86400008;stroke-dasharray:none;stroke-opacity:1" />
      <g
         transform="matrix(1,0,-6.2021e-2,1,0,0)"
         id="g63">
        <path
           d="M 330.493,41.692 L 337.282,67.058 L 343.155,67.058 L 336.366,41.692 L 330.493,41.692 z"
           id="path65"
           style="fill:#0079c2;fill-opacity:1;fill-rule:nonzero;stroke:#0079c2;stroke-width:0.167;stroke-linecap:butt;stroke-linejoin:miter;stroke-miterlimit:3.86400008;stroke-dasharray:none;stroke-opacity:1" />
      </g>
      <g
         transform="matrix(1,0,-6.2021e-2,1,0,0)"
         id="g67">
        <path
           d="M 348.237,67.058 L 358.4,67.058 L 355.609,41.692 L 349.986,41.692 L 352.027,63.268 L 343.655,41.692 L 337.824,41.692 L 348.237,67.058 z"
           id="path69"
           style="fill:#0079c2;fill-opacity:1;fill-rule:nonzero;stroke:#0079c2;stroke-width:0.167;stroke-linecap:butt;stroke-linejoin:miter;stroke-miterlimit:3.86400008;stroke-dasharray:none;stroke-opacity:1" />
      </g>
      <g
         transform="matrix(1,0,-6.2021e-2,1,0,0)"
         id="g71">
        <path
           d="M 363.773,67.058 L 369.646,67.058 L 362.857,41.692 L 356.984,41.692 L 363.773,67.058 z"
           id="path73"
           style="fill:#0079c2;fill-opacity:1;fill-rule:nonzero;stroke:#0079c2;stroke-width:0.167;stroke-linecap:butt;stroke-linejoin:miter;stroke-miterlimit:3.86400008;stroke-dasharray:none;stroke-opacity:1" />
      </g>
      <g
         transform="matrix(1,0,-6.2021e-2,1,0,0)"
         id="g75">
        <path
           d="M 343.655,50.814 L 355.609,50.814 L 355.609,46.3989 L 343.655,46.3989 L 343.655,50.814 z"
           id="path77"
           style="fill:#0079c2;fill-opacity:1;fill-rule:nonzero;stroke:#0079c2;stroke-width:0.167;stroke-linecap:butt;stroke-linejoin:miter;stroke-miterlimit:3.86400008;stroke-dasharray:none;stroke-opacity:1" />
      </g>
    </g>
  </g>
</svg>
